<?xml version="1.0" standalone="no"?>
<!DOCTYPE svg PUBLIC "-//W3C//DTD SVG 20010904//EN"
 "http://www.w3.org/TR/2001/REC-SVG-20010904/DTD/svg10.dtd">
<svg version="1.0" xmlns="http://www.w3.org/2000/svg"
 width="353.000000pt" height="350.000000pt" viewBox="0 0 353.000000 350.000000"
 preserveAspectRatio="xMidYMid meet">

<g transform="translate(0.000000,350.000000) scale(0.100000,-0.100000)"
fill="#000000" stroke="none">
<path d="M1675 3360 c-3 -5 -5 -247 -4 -537 l2 -528 -369 -5 c-361 -5 -370 -5
-416 -28 -85 -42 -127 -119 -114 -212 9 -67 48 -117 114 -148 l57 -27 365 -3
365 -3 0 -170 0 -169 -155 -1 c-455 -5 -613 0 -695 21 -209 53 -343 176 -396
365 -9 31 -14 96 -14 170 1 134 20 212 76 299 16 26 26 52 23 58 -4 6 -2 8 3
5 6 -4 26 7 44 25 132 123 285 168 575 168 l184 0 0 335 c0 283 -2 335 -14
335 -28 0 -193 -63 -289 -111 -118 -58 -224 -128 -332 -220 -159 -135 -298
-315 -393 -511 -179 -369 -208 -808 -81 -1193 57 -173 178 -394 287 -523 l27
-33 -5 119 c-6 132 -5 131 -94 226 -30 33 -53 62 -51 65 3 2 37 -30 76 -72 39
-43 76 -77 82 -77 6 0 79 33 161 73 83 41 172 82 198 93 32 12 48 25 48 37 0
19 -11 22 -27 6 -8 -8 -13 -8 -18 0 -3 6 -3 11 2 10 24 -4 21 5 -15 48 -22 27
-52 60 -67 76 -16 15 -25 31 -21 35 5 4 23 -10 41 -31 30 -35 34 -37 44 -20 6
10 11 13 11 7 0 -5 -5 -15 -11 -21 -7 -7 0 -22 26 -49 l37 -39 -6 80 c-3 44
-8 90 -12 103 -4 12 -2 22 4 22 12 0 25 -92 32 -223 0 -8 99 41 118 60 14 14
52 18 52 6 0 -5 -34 -24 -75 -43 -72 -33 -79 -44 -32 -55 7 -1 19 -5 27 -8 58
-24 431 -143 434 -138 8 12 36 160 36 186 0 16 6 25 16 25 12 0 15 -6 9 -23
-3 -12 -15 -60 -25 -105 l-18 -84 35 7 c19 3 76 19 126 34 112 35 195 39 228
12 19 -15 23 -28 24 -72 l0 -54 -79 -3 c-44 -2 -83 1 -89 7 -6 6 -5 28 2 61 6
29 10 55 8 57 -2 2 -44 -9 -93 -23 -49 -14 -107 -31 -129 -36 -45 -10 -55 -21
-55 -61 0 -15 -18 -112 -41 -215 -23 -103 -47 -218 -55 -257 -7 -38 -16 -80
-19 -93 l-5 -22 24 21 c14 12 23 27 19 32 -3 6 -1 7 5 3 11 -7 93 35 120 61
11 11 32 10 32 -1 0 -2 -38 -26 -85 -52 -46 -27 -85 -53 -85 -58 0 -5 20 -6
45 -3 27 4 45 3 45 -3 0 -6 -25 -10 -55 -10 -39 0 -55 -4 -55 -13 0 -30 31
-115 43 -120 8 -3 58 -11 111 -17 96 -12 399 -8 474 6 l32 6 0 482 0 481 286
-3 c232 -2 298 0 346 13 107 27 148 73 148 167 0 71 -31 125 -90 158 l-45 25
-322 3 -323 3 0 150 0 149 35 0 c30 0 45 11 122 91 48 51 87 99 86 108 -1 9
-27 88 -58 176 -31 88 -64 183 -72 210 -8 28 -22 63 -30 78 -11 22 -12 32 -2
43 6 8 10 16 8 19 -11 10 -28 -15 -59 -85 -44 -98 -58 -115 -57 -66 0 20 4 31
7 25 4 -5 20 17 37 51 16 33 28 60 25 60 -2 0 -15 -9 -29 -20 -14 -11 -34 -20
-44 -20 -10 0 -21 -9 -24 -20 -12 -38 -87 -56 -133 -31 -42 22 -43 110 -2 136
17 10 24 -25 10 -50 -17 -33 1 -55 45 -55 36 0 60 21 51 45 -8 22 -23 19 -29
-6 -9 -33 -32 -17 -35 25 l-3 37 53 -3 53 -3 -3 -32 c-2 -18 -1 -33 3 -33 12
0 84 40 90 50 10 17 -6 34 -17 19 -8 -11 -9 -11 -5 1 2 8 -7 23 -20 33 -31 24
-29 40 2 25 14 -6 23 -13 20 -16 -2 -3 7 -14 22 -25 l26 -21 19 25 c23 28 78
94 128 153 19 22 43 47 53 54 17 13 24 33 10 30 -5 0 -15 1 -23 4 -8 3 -34 11
-57 18 -24 7 -43 17 -43 22 0 10 38 1 56 -14 12 -8 97 -21 237 -34 37 -4 67
-11 67 -17 0 -6 -20 -7 -52 -3 -29 4 -71 9 -93 12 -53 7 -30 -8 55 -35 62 -20
69 -20 115 -6 54 16 111 20 119 7 4 -8 -15 -12 -64 -13 -14 0 -28 -5 -31 -11
-3 -5 -20 -10 -37 -10 -29 -1 -35 -7 -57 -56 -14 -30 -28 -52 -31 -49 -4 3 3
27 15 53 12 25 21 48 19 49 -9 9 -93 33 -100 29 -4 -3 -8 0 -8 5 0 6 -7 11
-15 11 -7 0 -19 8 -24 18 -6 9 -11 13 -11 8 0 -14 77 -125 84 -120 3 2 4 1 2
-2 -9 -13 17 -64 32 -64 15 0 254 139 274 158 4 4 -30 9 -75 10 -45 2 -86 8
-92 13 -7 7 25 9 95 7 l105 -3 6 50 c3 28 9 57 13 65 6 15 -85 91 -214 177
-137 92 -377 189 -537 217 -190 34 -356 46 -368 26z m1079 -421 c-3 -5 -10 -7
-15 -3 -5 3 -7 10 -3 15 3 5 10 7 15 3 5 -3 7 -10 3 -15z m-584 -45 c0 -17
-22 -14 -28 4 -2 7 3 12 12 12 9 0 16 -7 16 -16z m190 -9 c0 -8 -4 -17 -10
-20 -6 -4 -10 5 -10 20 0 15 4 24 10 20 6 -3 10 -12 10 -20z m-515 -145 c12
-19 84 -50 115 -50 25 0 31 -4 28 -17 -2 -13 -17 -20 -51 -25 -26 -3 -64 -16
-83 -27 -43 -26 -44 -26 -44 -1 0 12 12 26 32 36 l32 16 -27 20 c-15 11 -27
28 -27 39 0 20 15 26 25 9z m-1347 -35 c-3 -3 -9 2 -12 12 -6 14 -5 15 5 6 7
-7 10 -15 7 -18z m1408 -97 c4 -7 4 -10 -1 -6 -4 4 -15 2 -24 -5 -14 -11 -14
-10 -2 6 16 20 18 21 27 5z m128 -44 c3 -8 2 -12 -4 -9 -6 3 -10 10 -10 16 0
14 7 11 14 -7z m56 -84 c0 -5 -5 -10 -11 -10 -5 0 -7 5 -4 10 3 6 8 10 11 10
2 0 4 -4 4 -10z m-302 -65 c-3 -3 -9 2 -12 12 -6 14 -5 15 5 6 7 -7 10 -15 7
-18z m197 5 c3 -6 -1 -7 -9 -4 -18 7 -21 14 -7 14 6 0 13 -4 16 -10z m-32 -31
c23 -29 22 -84 -3 -109 -27 -27 -89 -27 -124 1 -42 33 -32 109 17 129 33 14
90 3 110 -21z m-143 -153 c0 -2 -7 -7 -16 -10 -8 -3 -12 -2 -9 4 6 10 25 14
25 6z m158 -48 l-3 -53 -85 0 c-78 0 -85 2 -85 20 0 18 6 20 68 17 l67 -4 0
36 c0 30 4 36 21 36 18 0 20 -5 17 -52z m-141 27 c0 -8 -9 -15 -21 -15 -20 0
-20 0 0 15 10 8 19 15 20 15 0 0 1 -7 1 -15z m-967 -29 c0 -3 -4 -8 -10 -11
-5 -3 -10 -1 -10 4 0 6 5 11 10 11 6 0 10 -2 10 -4z m905 -6 c3 -5 1 -10 -4
-10 -6 0 -11 5 -11 10 0 6 2 10 4 10 3 0 8 -4 11 -10z m-916 -50 c11 -24 11
-24 -3 -6 -9 11 -16 24 -16 30 0 12 5 7 19 -24z m1088 -52 c25 -23 29 -57 12
-91 -17 -31 -28 -37 -80 -37 -56 0 -83 25 -83 75 0 50 27 75 82 75 33 0 52 -6
69 -22z m-1103 -34 c3 -8 2 -12 -4 -9 -6 3 -10 10 -10 16 0 14 7 11 14 -7z m9
-37 c4 3 7 4 7 0 0 -18 -21 -14 -30 5 -10 21 -10 21 3 6 8 -10 17 -15 20 -11z
m52 -45 c-3 -3 -11 0 -18 7 -9 10 -8 11 6 5 10 -3 15 -9 12 -12z m5 -16 c0 -2
-7 -7 -16 -10 -8 -3 -12 -2 -9 4 6 10 25 14 25 6z m993 -25 c51 -1 67 -4 67
-16 0 -14 -80 -75 -99 -75 -6 0 -11 -5 -11 -11 0 -5 8 -9 18 -8 9 1 32 1 50 0
26 -1 32 -5 32 -22 0 -15 -4 -19 -16 -15 -9 3 -47 6 -85 6 -62 0 -69 2 -69 19
0 19 37 51 74 65 25 9 19 13 -28 19 -37 5 -60 23 -50 39 3 4 15 6 27 4 12 -3
52 -5 90 -5z m-146 -23 c-3 -8 -6 -5 -6 6 -1 11 2 17 5 13 3 -3 4 -12 1 -19z
m-30 -20 c-3 -8 -6 -5 -6 6 -1 11 2 17 5 13 3 -3 4 -12 1 -19z m36 -32 c7 -17
-20 -30 -29 -14 -4 7 -3 8 4 4 7 -4 12 -1 12 8 0 20 6 20 13 2z m192 -16 c3
-6 -1 -7 -9 -4 -18 7 -21 14 -7 14 6 0 13 -4 16 -10z m-199 -54 c0 -13 -4 -22
-8 -19 -11 6 -10 43 1 43 5 0 8 -11 7 -24z m249 -6 c3 -5 1 -10 -4 -10 -6 0
-11 5 -11 10 0 6 2 10 4 10 3 0 8 -4 11 -10z m-1519 -12 c5 -7 3 -8 -6 -3 -9
5 -10 1 -6 -16 6 -20 5 -21 -4 -6 -6 9 -8 22 -5 27 8 13 12 13 21 -2z m1284
-22 c0 -3 -4 -8 -10 -11 -5 -3 -10 -1 -10 4 0 6 5 11 10 11 6 0 10 -2 10 -4z
m188 -18 c3 -15 -4 -18 -37 -18 -40 0 -41 -1 -41 -35 0 -33 2 -35 35 -35 29 0
35 -4 35 -21 0 -21 -3 -21 -87 -14 -49 4 -90 9 -92 11 -12 12 13 34 39 34 27
0 30 3 30 30 0 27 -3 30 -30 30 -24 0 -30 4 -30 20 0 20 5 21 87 18 74 -3 88
-6 91 -20z m-198 -23 c0 -8 -4 -15 -10 -15 -5 0 -10 7 -10 15 0 8 5 15 10 15
6 0 10 -7 10 -15z m-1237 -20 c-7 -21 -12 -19 -10 4 0 11 5 18 9 15 4 -3 5
-11 1 -19z m1464 9 c-3 -3 -12 -4 -19 -1 -8 3 -5 6 6 6 11 1 17 -2 13 -5z
m-169 -18 c-7 -8 -15 -12 -17 -11 -5 6 10 25 20 25 5 0 4 -6 -3 -14z m142 -2
c0 -2 -11 -4 -25 -4 -14 0 -25 4 -25 9 0 4 11 6 25 3 14 -2 25 -6 25 -8z m40
-3 c0 -5 -7 -11 -14 -14 -10 -4 -13 -1 -9 9 6 15 23 19 23 5z m-273 -68 c-3
-10 -5 -2 -5 17 0 19 2 27 5 18 2 -10 2 -26 0 -35z m37 -9 c3 -8 2 -12 -4 -9
-6 3 -10 10 -10 16 0 14 7 11 14 -7z m-23 -37 c-10 -9 -11 -8 -5 6 3 10 9 15
12 12 3 -3 0 -11 -7 -18z m89 10 c0 -7 -5 -18 -11 -24 -7 -7 -9 -23 -5 -37 5
-21 13 -26 35 -26 16 0 36 3 45 6 20 8 21 48 1 64 -23 19 -18 32 12 28 47 -5
57 -82 17 -122 -20 -20 -93 -21 -121 -1 -30 21 -39 69 -19 100 17 27 46 34 46
12z m44 -13 c4 -15 5 -29 1 -32 -3 -3 -5 3 -5 13 0 17 -1 17 -21 -1 l-22 -19
14 25 c7 14 12 28 11 33 -1 4 2 7 7 7 5 0 12 -12 15 -26z m130 10 c5 -14 4
-15 -9 -4 -17 14 -19 20 -6 20 5 0 12 -7 15 -16z m-271 -49 c4 -8 3 -16 -1
-19 -4 -3 -9 4 -9 15 -2 23 3 25 10 4z m-819 -30 c-4 -8 -13 -15 -22 -15 -13
0 -12 3 4 15 24 18 25 18 18 0z m36 -25 c0 -16 -4 -30 -10 -30 -11 0 -14 43
-3 53 11 12 13 8 13 -23z m1024 -26 c3 -8 2 -12 -4 -9 -6 3 -10 10 -10 16 0
14 7 11 14 -7z m806 0 c0 -8 -19 -13 -24 -6 -3 5 1 9 9 9 8 0 15 -2 15 -3z
m-978 -9 c9 -4 12 -19 10 -48 -5 -49 14 -41 20 8 2 19 9 31 21 33 14 3 17 -4
17 -38 0 -34 3 -41 18 -38 12 2 18 14 20 41 2 24 8 37 18 37 10 0 14 -14 14
-55 l0 -55 -85 0 -85 0 0 53 c0 63 5 72 32 62z m-881 -128 c-10 -9 -11 -8 -5
6 3 10 9 15 12 12 3 -3 0 -11 -7 -18z m883 -32 c-6 -24 -5 -24 63 -27 59 -3
68 -5 68 -22 0 -18 -7 -19 -67 -17 -67 2 -68 2 -68 -24 0 -20 -4 -26 -17 -23
-10 2 -18 11 -17 21 0 9 1 40 2 67 2 43 5 50 22 50 17 0 19 -5 14 -25z m-668
-67 c-10 -6 -22 -6 -26 -2 -5 5 3 10 18 11 22 1 24 0 8 -9z m871 -24 c-3 -3
-12 -4 -19 -1 -8 3 -5 6 6 6 11 1 17 -2 13 -5z m-1377 -94 c0 -5 -2 -10 -4
-10 -3 0 -8 5 -11 10 -3 6 -1 10 4 10 6 0 11 -4 11 -10z m1337 -52 c-3 -8 -6
-5 -6 6 -1 11 2 17 5 13 3 -3 4 -12 1 -19z m-127 -128 c11 -11 20 -31 20 -44
0 -19 6 -25 27 -28 17 -2 29 -10 31 -20 3 -16 -6 -18 -88 -18 l-92 0 6 48 c11
73 56 102 96 62z m53 -40 c3 -11 1 -18 -4 -14 -5 3 -9 12 -9 20 0 20 7 17 13
-6z m-103 -109 c0 -5 -4 -21 -10 -35 -15 -41 7 -40 27 1 14 31 24 39 50 41 45
4 67 -29 53 -80 -11 -38 -37 -57 -46 -34 -3 8 0 24 6 35 11 21 6 41 -10 41 -5
0 -14 -15 -20 -34 -11 -35 -26 -46 -60 -46 -32 0 -51 59 -34 104 7 17 44 22
44 7z m187 -143 c-3 -7 -5 -2 -5 12 0 14 2 19 5 13 2 -7 2 -19 0 -25z m-86 1
c15 -15 19 -28 14 -56 -7 -45 -12 -53 -36 -53 -20 0 -26 24 -9 35 15 9 12 45
-3 45 -7 0 -19 -16 -25 -34 -14 -39 -41 -53 -71 -37 -25 14 -33 38 -23 76 6
21 16 31 32 33 19 3 21 1 15 -15 -4 -10 -10 -29 -13 -42 -8 -37 19 -21 33 19
10 29 31 47 58 49 4 1 16 -8 28 -20z m-308 -104 c-3 -9 -8 -14 -10 -11 -3 3
-2 9 2 15 9 16 15 13 8 -4z m262 -25 c-3 -5 -12 -10 -18 -10 -7 0 -6 4 3 10
19 12 23 12 15 0z"/>
<path d="M1858 2373 c-12 -3 -18 -14 -18 -33 0 -32 25 -46 66 -36 33 9 35 61
2 70 -13 3 -25 5 -28 5 -3 -1 -13 -3 -22 -6z m42 -38 c0 -18 -36 -20 -46 -3
-4 7 -3 8 4 4 7 -4 12 -2 12 3 0 6 7 11 15 11 8 0 15 -7 15 -15z"/>
<path d="M1823 2044 c-10 -27 11 -49 50 -52 32 -3 37 0 43 22 9 36 -2 46 -47
46 -27 0 -42 -5 -46 -16z m57 -36 c0 -5 -4 -8 -10 -8 -5 0 -10 7 -10 16 0 8
-4 12 -10 9 -11 -7 -14 8 -3 18 6 7 32 -21 33 -35z m25 14 c-3 -3 -11 0 -18 7
-9 10 -8 11 6 5 10 -3 15 -9 12 -12z"/>
<path d="M1777 864 c-16 -16 -7 -44 14 -44 15 0 20 5 17 22 -3 22 -19 33 -31
22z"/>
<path d="M2805 2920 c-3 -5 -4 -14 0 -19 3 -5 1 -12 -4 -15 -4 -3 -7 -23 -5
-45 2 -28 24 -70 77 -152 41 -63 81 -128 90 -146 23 -44 60 -70 134 -93 36
-11 69 -20 75 -20 19 0 -88 183 -181 310 -39 54 -162 190 -171 190 -5 0 -12
-4 -15 -10z m79 -89 c-12 -12 -74 -21 -74 -11 0 10 48 22 60 15 6 -4 10 -1 10
6 0 7 3 9 7 6 4 -4 2 -11 -3 -16z m24 -96 c-3 -3 -9 2 -12 12 -6 14 -5 15 5 6
7 -7 10 -15 7 -18z m106 -155 c-6 -6 -10 -3 -10 10 0 13 4 16 10 10 7 -7 7
-13 0 -20z m44 -56 c2 -1 -5 -5 -15 -8 -9 -4 -14 -4 -10 0 4 4 1 14 -6 23 -11
14 -10 15 8 1 11 -8 21 -15 23 -16z"/>
<path d="M2335 2773 c-1 -21 -3 -51 -5 -67 -5 -28 -2 -30 48 -44 28 -8 52 -18
52 -22 0 -4 -27 -1 -59 8 -60 16 -60 16 -114 -12 -30 -15 -67 -31 -83 -36 -22
-8 -15 -8 31 -4 101 9 220 27 229 35 7 6 -49 113 -86 162 -12 15 -13 13 -13
-20z"/>
<path d="M2268 2750 c-26 -29 -44 -58 -41 -63 3 -6 2 -7 -4 -4 -6 4 -24 -11
-42 -33 -18 -22 -27 -40 -22 -40 19 0 80 33 75 41 -2 4 1 11 7 15 8 4 9 3 5
-4 -9 -15 -3 -15 29 0 27 12 49 69 43 116 -3 25 -5 23 -50 -28z"/>
<path d="M2387 2604 c-1 -1 -59 -10 -130 -20 -70 -10 -127 -21 -127 -24 0 -4
21 -17 48 -30 26 -13 49 -26 52 -29 11 -14 60 -41 72 -40 14 0 118 120 118
136 0 8 -26 14 -33 7z"/>
<path d="M2488 2603 c-17 -4 -23 -16 -19 -37 1 -4 -4 -15 -11 -23 -16 -19
-111 -328 -112 -365 -1 -14 -4 -24 -8 -21 -5 2 -8 -5 -8 -15 0 -11 -7 -36 -15
-55 -22 -52 -20 -56 28 -50 84 11 367 74 367 83 0 8 -197 73 -208 69 -5 -2
-42 -34 -82 -71 -70 -66 -90 -79 -90 -58 0 6 4 10 8 10 4 0 41 31 81 69 l74
69 -7 78 c-5 44 -10 113 -12 154 -2 41 -6 81 -9 88 -2 6 0 12 5 12 13 0 18
-28 25 -145 9 -163 15 -195 34 -195 17 0 168 -52 200 -69 11 -6 22 -11 25 -11
6 0 -77 144 -86 148 -5 2 -8 8 -8 14 0 5 -40 74 -90 153 -89 142 -100 162 -80
150 6 -3 10 0 10 7 0 8 3 9 8 3 4 -5 14 -11 22 -13 8 -2 49 -28 90 -58 41 -29
79 -53 84 -53 5 0 12 -4 15 -10 5 -8 42 -9 120 -3 61 4 117 4 124 0 7 -4 -16
-8 -49 -8 -59 0 -162 -15 -172 -25 -3 -3 0 -35 6 -72 6 -38 13 -95 16 -128 9
-93 -13 -29 -25 75 -6 47 -12 96 -13 110 -2 17 -22 38 -70 71 -36 25 -79 52
-94 60 -15 8 -33 20 -41 27 -25 24 -24 3 1 -30 13 -18 73 -113 132 -210 59
-98 110 -178 113 -178 12 0 53 53 128 166 93 141 84 129 91 122 3 -3 -21 -45
-53 -93 -32 -48 -69 -103 -82 -123 -13 -19 -34 -46 -48 -60 -15 -15 -21 -28
-15 -34 11 -11 142 -58 164 -58 18 0 34 -18 24 -27 -3 -4 -16 -2 -29 4 -82 39
-189 61 -186 39 0 -5 -3 -12 -8 -15 -10 -8 -30 -39 -43 -68 -5 -13 -14 -23
-20 -23 -13 0 -13 27 0 35 5 3 24 26 41 51 30 44 30 45 7 42 -13 -2 -28 -7
-35 -11 -6 -4 -44 -14 -85 -22 -137 -27 -311 -65 -314 -68 -2 -2 9 -42 23 -90
l26 -87 172 0 c139 0 187 -4 249 -20 227 -58 356 -224 356 -457 0 -147 -41
-256 -129 -343 -112 -111 -237 -149 -491 -150 l-170 -2 0 -278 0 -279 43 18
c73 31 239 131 317 191 102 78 273 258 342 361 106 158 185 337 235 534 22 87
26 128 30 312 7 272 -12 398 -94 631 l-19 53 -129 44 c-72 24 -206 64 -300 90
-93 26 -189 53 -213 61 -23 8 -44 13 -45 13 -1 -1 -10 -3 -19 -6z m337 -542
c6 -11 25 -40 43 -65 48 -66 25 -56 -28 13 -25 32 -48 57 -52 54 -4 -2 -5 3
-2 11 7 18 26 12 39 -13z m-115 -5 c0 -2 -8 -10 -17 -17 -16 -13 -17 -12 -4 4
13 16 21 21 21 13z m218 -135 c3 -8 -1 -12 -9 -9 -7 2 -15 10 -17 17 -3 8 1
12 9 9 7 -2 15 -10 17 -17z m44 -148 c-6 -2 -10 -9 -7 -14 4 -5 -1 -6 -10 -2
-13 5 -14 7 -3 14 7 5 18 8 23 8 6 0 4 -3 -3 -6z m118 -127 c0 -3 -4 -8 -10
-11 -5 -3 -10 -1 -10 4 0 6 5 11 10 11 6 0 10 -2 10 -4z m30 -579 c0 -7 -4 -6
-10 3 -8 12 -10 12 -10 1 0 -8 -3 -12 -6 -8 -9 9 6 28 17 22 5 -4 9 -12 9 -18z
m-32 -42 c-3 -3 -9 2 -12 12 -6 14 -5 15 5 6 7 -7 10 -15 7 -18z m-27 -22
c-12 -20 -14 -14 -5 12 4 9 9 14 11 11 3 -2 0 -13 -6 -23z m-41 -83 c0 -5 -2
-10 -4 -10 -3 0 -8 5 -11 10 -3 6 -1 10 4 10 6 0 11 -4 11 -10z"/>
<path d="M2408 2551 c-16 -16 -28 -33 -28 -40 0 -6 -4 -11 -9 -11 -22 0 -54
-63 -53 -104 1 -22 -4 -76 -12 -119 -7 -42 -12 -94 -10 -114 1 -21 -2 -44 -7
-53 -6 -10 -8 17 -4 80 4 52 7 130 8 174 l2 78 -85 49 c-65 37 -86 44 -88 33
-2 -8 1 -20 6 -27 5 -7 28 -68 51 -137 65 -199 74 -223 89 -260 12 -30 15 -32
24 -16 6 10 23 62 38 115 52 179 100 332 110 351 21 39 6 40 -32 1z m-77 -268
c-12 -20 -14 -14 -5 12 4 9 9 14 11 11 3 -2 0 -13 -6 -23z"/>
<path d="M2236 1949 c-40 -41 -47 -53 -35 -60 12 -8 12 -9 -1 -7 -15 3 -70
-33 -70 -46 0 -3 47 -6 105 -6 58 0 105 2 105 5 0 3 -4 13 -9 23 -5 9 -17 45
-27 79 l-19 62 -49 -50z"/>
<path d="M925 1082 c-16 -42 -29 -83 -28 -90 0 -7 -2 -11 -5 -8 -5 6 -34 -47
-37 -69 -1 -5 -9 -27 -19 -47 l-16 -37 65 -136 c35 -75 62 -142 59 -149 -3 -8
0 -17 6 -21 8 -5 11 3 10 26 -3 51 2 68 9 34 6 -27 15 -13 100 159 50 103 91
192 89 197 -2 4 -43 49 -93 100 l-90 91 -5 -228 -6 -229 -3 165 c-2 91 -5 192
-7 225 -2 43 2 65 13 78 13 14 13 17 2 17 -8 0 -26 -32 -44 -78z"/>
<path d="M850 1111 c-47 -21 -114 -53 -150 -71 -36 -18 -89 -43 -118 -55 l-53
-22 200 -210 c110 -116 201 -209 204 -207 3 3 -47 113 -112 244 -18 37 -33 47
-175 110 -49 22 -86 43 -83 46 5 5 95 -31 191 -77 22 -11 43 -19 46 -19 4 0
36 64 70 143 35 78 65 145 67 150 6 10 7 10 -87 -32z m-30 -70 c0 -5 -7 -11
-14 -14 -10 -4 -13 -1 -9 9 6 15 23 19 23 5z m-53 -228 c-4 -3 0 -15 10 -25
20 -22 11 -24 -11 -2 -15 14 -14 34 1 34 4 0 3 -3 0 -7z"/>
<path d="M1005 1129 c11 -13 49 -54 85 -92 35 -37 68 -73 72 -80 5 -9 43 -6
153 13 l146 24 -193 63 c-106 35 -202 67 -213 72 -11 6 -31 13 -45 17 l-25 7
20 -24z"/>
<path d="M1796 1024 c-9 -8 -16 -24 -16 -35 0 -16 7 -19 50 -19 43 0 50 3 50
19 0 25 -26 51 -50 51 -10 0 -26 -7 -34 -16z m64 -27 c0 -7 -4 -6 -10 3 -5 8
-10 10 -10 5 0 -6 -10 -11 -22 -12 -22 -2 -22 -1 2 12 26 14 40 11 40 -8z"/>
<path d="M1303 951 l-132 -24 -17 -46 c-10 -25 -17 -50 -16 -54 1 -5 -2 -6 -8
-2 -5 3 -10 1 -10 -5 0 -6 -27 -65 -60 -132 -34 -66 -59 -122 -57 -124 4 -5
17 6 135 114 48 43 114 103 147 132 67 60 76 70 69 82 -3 5 -2 7 3 6 11 -4 64
38 57 44 -3 3 2 8 11 12 40 15 -18 -52 -153 -176 -45 -42 -70 -72 -66 -79 4
-8 3 -9 -5 -5 -10 6 -169 -123 -179 -146 -2 -4 -10 -4 -18 -1 -8 3 -14 0 -14
-6 0 -6 4 -11 8 -11 20 0 168 43 193 56 26 13 202 262 245 347 9 18 22 35 28
39 16 10 -13 7 -161 -21z m-83 -275 c0 -2 -8 -10 -17 -17 -16 -13 -17 -12 -4
4 13 16 21 21 21 13z m-47 -21 c-3 -9 -8 -14 -10 -11 -3 3 -2 9 2 15 9 16 15
13 8 -4z"/>
<path d="M1407 853 c-31 -49 -60 -93 -65 -99 -17 -19 -31 -51 -27 -58 3 -3 2
-4 -2 -1 -10 8 -55 -64 -47 -77 4 -6 3 -8 -3 -5 -16 10 -34 -18 -26 -39 3 -11
28 -59 55 -108 27 -48 47 -91 44 -94 -8 -8 -9 -7 -64 98 -37 71 -54 95 -68 94
-33 -3 -224 -57 -219 -62 3 -3 20 -11 38 -18 17 -6 94 -37 169 -68 76 -31 141
-56 146 -56 4 0 14 28 20 63 13 65 49 230 88 407 13 57 22 106 20 107 -2 2
-28 -36 -59 -84z"/>
<path d="M790 480 c26 -22 153 -100 161 -100 3 0 5 26 4 58 l0 57 -95 3 -95 2
25 -20z m131 -10 c6 0 7 5 4 10 -3 6 -1 10 4 10 20 0 11 -27 -13 -43 -25 -17
-41 -12 -28 7 4 6 7 14 8 19 4 19 6 21 11 10 2 -7 9 -13 14 -13z"/>
<path d="M970 425 c0 -52 2 -57 33 -75 65 -40 377 -150 377 -133 0 3 -7 29
-16 59 -18 62 -26 65 -105 34 -29 -12 -62 -19 -73 -17 -13 2 2 10 44 23 l65
19 -85 11 c-47 6 -100 10 -117 9 -18 -2 -33 1 -33 7 0 5 -17 30 -37 54 -21 25
-37 50 -35 55 1 5 -2 9 -8 9 -5 0 -10 -25 -10 -55z m55 -35 c3 -6 -4 -10 -17
-10 -18 0 -20 2 -8 10 19 12 18 12 25 0z m115 -54 c0 -2 -7 -7 -16 -10 -8 -3
-12 -2 -9 4 6 10 25 14 25 6z"/>
<path d="M1000 471 c0 -4 19 -27 43 -52 l42 -46 87 -7 c48 -3 99 -11 115 -17
16 -6 24 -6 18 -1 -14 14 -305 131 -305 123z"/>
</g>
</svg>
